<svg width="200" height="18" viewBox="0 0 200 18" fill="none" xmlns="http://www.w3.org/2000/svg">
<path d="M73.252 17.3294H78.6581L79.926 13.4034H79.0247C76.4551 13.4034 74.1832 14.9652 73.252 17.3294Z" fill="white"/>
<path d="M94.6344 3.17825L90.0649 17.3292H84.6456L86.5963 11.297H71.9286C71.946 11.6314 71.9236 11.9721 71.8577 12.3152C71.7396 12.9331 71.4922 13.551 71.1229 14.1502C70.7525 14.7507 70.2552 15.2915 69.646 15.7602C69.0319 16.2326 68.2983 16.6156 67.4666 16.9003C66.6348 17.185 65.6851 17.3292 64.6432 17.3292H47.7427L47.3709 7.93404L40.2062 17.3292H29.7593L27.3461 13.2775H24.7751L23.4623 17.3292H18.0443L19.3025 13.4478L19.4616 12.9592C19.9228 11.5369 20.7508 10.3161 21.8212 9.38613C23.1453 8.23366 24.8411 7.5275 26.6736 7.43923L26.0918 9.28046H30.3934C31.2562 9.28046 31.9225 9.08403 32.3713 8.69615C32.8251 8.30578 33.0787 7.86318 33.1247 7.38328C33.172 6.89593 33.0091 6.44341 32.6424 6.03935C32.2744 5.6353 31.7298 5.43016 31.0249 5.43016L11.0051 5.40653C10.1634 5.40653 9.37645 5.60421 8.66537 5.99209C7.96537 6.37501 7.36616 6.85862 6.88629 7.42927C6.71844 7.62818 6.56553 7.83456 6.42875 8.04715C6.40266 8.0857 6.37782 8.12548 6.35415 8.16402C6.3343 8.19511 6.31566 8.22743 6.29697 8.25852C6.25969 8.32068 6.22363 8.38285 6.19006 8.44626C6.16894 8.4848 6.14782 8.52458 6.12791 8.56436C6.08687 8.64392 6.04833 8.72473 6.01106 8.80554C5.99242 8.84655 5.975 8.88758 5.95757 8.92862C5.93894 8.96963 5.92151 9.01066 5.90664 9.05169C5.87427 9.13499 5.84321 9.21705 5.81461 9.30158C5.5821 9.98411 5.51497 10.6343 5.61695 11.2336C5.62812 11.3007 5.64177 11.3654 5.65798 11.43C5.78849 11.9646 6.07442 12.4196 6.51082 12.7864C6.99815 13.1954 7.70556 13.403 8.61564 13.403H16.2814L15.4049 16.163L15.0345 17.3292H7.28038C5.68658 17.3292 4.35878 17.1004 3.33063 16.6503C3.20879 16.5969 3.09066 16.5422 2.9763 16.485C2.91912 16.4564 2.86194 16.4265 2.80724 16.3967C2.75127 16.3669 2.69657 16.337 2.64315 16.306C2.59964 16.2811 2.55731 16.2562 2.51506 16.2314C2.47282 16.2065 2.43177 16.1804 2.38952 16.1543C2.26519 16.0772 2.14707 15.9977 2.03392 15.9131C2.00041 15.8883 1.96677 15.8634 1.93449 15.8385C1.799 15.7341 1.6697 15.6259 1.55035 15.5116C1.5118 15.4767 1.47325 15.4395 1.43598 15.4022C1.35392 15.3201 1.27432 15.2356 1.19971 15.1485C1.16244 15.105 1.12517 15.0603 1.09032 15.0167C1.05426 14.972 1.01948 14.9272 0.985902 14.8812C0.819329 14.6537 0.672603 14.415 0.546999 14.1676C0.523391 14.1216 0.500995 14.0756 0.479852 14.0296C0.460004 13.9886 0.441368 13.9463 0.423944 13.9041C0.409006 13.8717 0.395343 13.8394 0.382912 13.8071C0.376665 13.7909 0.369249 13.7748 0.363002 13.7586C0.346852 13.7164 0.329428 13.6728 0.31449 13.6293C0.278493 13.5311 0.244919 13.4316 0.216338 13.3297C0.202612 13.2812 0.18897 13.2327 0.176518 13.1842C0.174032 13.1755 0.171546 13.1656 0.16906 13.1556C0.157882 13.1109 0.146726 13.0661 0.13676 13.0214C0.113152 12.9182 0.09203 12.8125 0.0758177 12.7056C0.0671265 12.6521 0.0596682 12.5987 0.0522097 12.5452C0.0497236 12.5216 0.0447513 12.4967 0.0423069 12.4718C0.0385463 12.447 0.0360599 12.4221 0.0335737 12.3972C0.0286014 12.345 0.0236084 12.2928 0.018636 12.2406C0.018636 12.2381 0.0174243 12.2356 0.018636 12.2331C0.0149381 12.1772 0.01124 12.1225 0.00867027 12.0678C0.00497236 12.0118 0.0036979 11.9571 0.00248616 11.9012C-1.08961e-08 11.844 0 11.7881 0 11.7309C0 11.6861 -6.24581e-08 11.6401 0.00127436 11.5941C0.00369785 11.5046 0.00745868 11.4138 0.0124519 11.3231C0.018636 11.2311 0.0261152 11.1378 0.0347855 11.0446C0.0870577 10.5374 0.196449 10.0227 0.361811 9.50298C0.401569 9.37865 0.443813 9.25435 0.489838 9.13002C0.50229 9.0977 0.513446 9.06538 0.527172 9.03304C0.798165 8.32191 1.16992 7.61824 1.63613 6.9332C1.63862 6.92949 1.63983 6.92575 1.64231 6.92326C1.72189 6.80639 1.80398 6.69077 1.88847 6.57639C2.58597 5.6278 3.45624 4.76625 4.47444 4.01409C5.49136 3.26193 6.68366 2.64901 8.01637 2.19152C8.80457 1.92173 9.64005 1.73028 10.5178 1.62087C11.122 1.5438 11.7461 1.50525 12.3863 1.50525H31.5409C33.0676 1.50525 34.3493 1.7514 35.3514 2.23752C36.3485 2.72113 37.1192 3.34773 37.6426 4.09864C38.1636 4.84831 38.4533 5.68128 38.5055 6.57641C38.5564 7.47776 38.3874 8.36666 38.0032 9.21705C37.6178 10.0687 36.9949 10.8457 36.152 11.5245C35.3067 12.2058 34.2375 12.7031 32.9743 13.0039L32.5951 13.0935L35.0219 17.175L46.9532 1.50527H51.3282C52.0151 1.50527 52.5795 2.04751 52.6069 2.73383L53.0302 13.311L64.4319 13.3334C64.9055 13.3334 65.2934 13.2451 65.5856 13.0699C65.8977 12.8859 66.0941 12.6658 66.1699 12.4172C66.2557 12.1337 66.1699 11.8515 65.93 11.6227C65.7086 11.4114 65.3569 11.3094 64.8546 11.3094H61.6222C60.538 11.3094 59.6119 11.1627 58.8684 10.8731C58.1299 10.5847 57.5381 10.2092 57.1092 9.75914C56.6853 9.31405 56.3968 8.79687 56.2539 8.22373C56.1084 7.64191 56.0935 7.04143 56.2103 6.43846C56.3285 5.82803 56.5746 5.22257 56.9439 4.63949C57.3144 4.05393 57.8079 3.52306 58.4109 3.06182C59.0151 2.59933 59.7449 2.22016 60.5779 1.93421C61.4121 1.64951 62.3619 1.50529 63.4025 1.50529H74.2286L72.9157 5.52342L63.4497 5.50105C63.0556 5.50105 62.7199 5.58062 62.4489 5.73974C62.163 5.90757 61.9777 6.10899 61.9019 6.34022C61.8136 6.60254 61.877 6.86735 62.0821 7.08367C62.2724 7.28507 62.5745 7.38328 63.0034 7.38328L76.4266 7.39074L78.3474 1.50527H83.7679L81.8471 7.45415H87.8345L89.7553 1.50527H93.4166C94.285 1.50527 94.9012 2.35184 94.6344 3.17825Z" fill="white"/>
<path d="M199.998 7.04516C199.996 6.84128 199.987 6.63739 199.966 6.43722C199.951 6.29052 199.927 6.14632 199.901 6.00459C199.865 5.80816 199.818 5.6167 199.759 5.43022C199.595 4.9006 199.347 4.40579 199.013 3.9545C198.495 3.2496 197.74 2.67149 196.773 2.23261C196.737 2.21646 196.705 2.19906 196.669 2.18412C196.667 2.18286 196.665 2.18163 196.664 2.18163C195.637 1.73283 194.31 1.50531 192.72 1.50531H190.804C190.01 1.50531 189.166 1.53514 188.317 1.62093C187.439 1.73034 186.603 1.9218 185.815 2.19158C184.482 2.64909 183.29 3.26201 182.273 4.01415C181.255 4.76631 180.385 5.62786 179.687 6.57645C179.603 6.69083 179.521 6.80645 179.441 6.92332C179.439 6.92581 179.437 6.92953 179.435 6.93327C179.21 7.28014 179 7.63942 178.803 8.00867C178.626 8.34309 178.464 8.68251 178.326 9.0331C178.312 9.06542 178.301 9.09774 178.289 9.13008C178.241 9.25315 178.198 9.37748 178.158 9.5043C177.993 10.0227 177.885 10.5374 177.834 11.0447C177.825 11.1379 177.817 11.2311 177.811 11.3232C177.806 11.4139 177.803 11.5047 177.8 11.5942C177.799 11.6402 177.799 11.6862 177.799 11.7309C177.799 11.7881 177.799 11.8441 177.801 11.9013C177.803 11.9572 177.804 12.0119 177.807 12.0679C177.81 12.1225 177.814 12.1773 177.817 12.2332C177.816 12.2357 177.817 12.2382 177.817 12.2407C177.821 12.2929 177.826 12.3463 177.831 12.3986C177.834 12.4234 177.837 12.4483 177.841 12.4719C177.844 12.4968 177.849 12.5216 177.851 12.5453C177.859 12.5987 177.866 12.6522 177.875 12.7056C177.892 12.8126 177.912 12.917 177.936 13.0214C177.946 13.0662 177.957 13.1109 177.968 13.1557C177.97 13.1657 177.973 13.1756 177.975 13.1843C177.988 13.2328 178.001 13.2813 178.015 13.3298C178.045 13.4305 178.077 13.5312 178.113 13.6294C178.13 13.6729 178.146 13.7164 178.162 13.7587C178.168 13.7748 178.176 13.791 178.182 13.8072C178.194 13.8395 178.208 13.8718 178.223 13.9041C178.24 13.9464 178.259 13.9887 178.279 14.0297C178.3 14.0757 178.322 14.1217 178.346 14.1677C178.47 14.4151 178.616 14.6525 178.783 14.8813C178.817 14.9273 178.852 14.9721 178.889 15.0168C178.924 15.0603 178.961 15.1051 178.999 15.1486C179.073 15.2356 179.151 15.3202 179.235 15.4022C179.272 15.4395 179.311 15.4768 179.349 15.5116C179.469 15.626 179.598 15.7342 179.733 15.8386C179.766 15.8634 179.799 15.8883 179.833 15.9132C179.947 15.9965 180.065 16.0773 180.188 16.1544C180.231 16.1805 180.272 16.2066 180.314 16.2314C180.356 16.2563 180.398 16.2812 180.442 16.306C180.495 16.3371 180.55 16.3669 180.606 16.3968C180.661 16.4266 180.718 16.4564 180.775 16.485C180.89 16.5422 181.006 16.5982 181.128 16.6516C181.129 16.6516 181.132 16.6529 181.133 16.6529C182.159 17.1017 183.487 17.3304 185.078 17.3304H187.613C187.613 17.3304 187.637 17.3304 187.637 17.3292C187.743 17.3292 187.849 17.3255 187.956 17.323C188.959 17.3018 189.92 17.1837 190.827 16.9724C191.222 16.8792 191.609 16.771 191.983 16.6429C192.404 16.4987 192.811 16.3384 193.204 16.1631C194.052 15.7851 194.829 15.3363 195.524 14.8216C196.098 14.3977 196.626 13.9377 197.101 13.4478C197.469 13.0699 197.807 12.6721 198.111 12.2593C198.438 11.8142 198.724 11.3604 198.969 10.9005C199.236 10.4007 199.455 9.89469 199.62 9.3862C199.628 9.36754 199.633 9.35014 199.639 9.3315C199.875 8.58928 199.994 7.85703 199.999 7.1434C200 7.11108 199.998 7.07874 199.998 7.04516ZM194.306 9.11391C194.273 9.2519 194.233 9.39115 194.185 9.53288C193.705 10.934 192.629 12.1039 191.303 12.7802C191.302 12.7815 191.3 12.7815 191.299 12.7827C190.475 13.2017 189.641 13.3546 188.788 13.4031C188.141 13.4404 187.484 13.4167 186.812 13.4031C186.712 13.4006 186.61 13.3993 186.508 13.3981C185.947 13.3906 185.366 13.3546 184.853 13.1084C184.224 12.806 183.712 12.2364 183.497 11.5725C183.483 11.5254 183.469 11.4784 183.457 11.4301C183.441 11.3654 183.426 11.2995 183.414 11.2336C183.312 10.6344 183.38 9.98417 183.612 9.30165C183.641 9.21712 183.672 9.1338 183.705 9.05175C183.72 9.01072 183.738 8.96969 183.756 8.92868C183.773 8.88765 183.79 8.84661 183.81 8.8056C183.846 8.72479 183.884 8.64398 183.927 8.56442C183.947 8.52464 183.966 8.4861 183.989 8.44632C184.022 8.38291 184.058 8.32076 184.096 8.25858C184.114 8.22626 184.133 8.19517 184.153 8.16409C184.177 8.12554 184.203 8.08576 184.228 8.04722C184.791 7.19187 185.584 6.49069 186.504 6.02696C187.354 5.5993 188.279 5.44637 189.215 5.40784C189.489 5.39665 190.546 5.4041 190.809 5.41282C191.75 5.44142 192.745 5.54584 193.419 6.03941C193.935 6.41735 194.277 6.9706 194.382 7.60215C194.463 8.07707 194.436 8.58429 194.306 9.11391Z" fill="#FE9F10"/>
<path d="M113.979 1.50476L110.846 5.4197L110.606 5.41845L108.295 5.41225L106.162 5.40727C105.32 5.40727 104.533 5.6037 103.822 5.99284C103.122 6.37452 102.524 6.85813 102.043 7.43001C101.561 8.00066 101.201 8.63098 100.971 9.30108C100.739 9.9836 100.672 10.6338 100.774 11.2331C100.878 11.8534 101.179 12.3768 101.667 12.7859C102.155 13.1961 102.863 13.4038 103.772 13.4038H109.041L105.99 17.3299H102.437C100.845 17.3299 99.5155 17.1012 98.4873 16.6511C97.4692 16.2048 96.6809 15.6093 96.1438 14.8807C95.6067 14.1522 95.286 13.3167 95.1903 12.398C95.0933 11.4656 95.2039 10.4921 95.5185 9.50373C95.8355 8.5079 96.349 7.52202 97.0452 6.57592C97.7426 5.62858 98.6129 4.76578 99.6324 4.01362C100.649 3.26146 101.84 2.64855 103.173 2.19228C104.503 1.73602 105.974 1.50476 107.543 1.50476H113.979Z" fill="#FE9F10"/>
<path d="M117.906 1.50476L114.951 5.42965L112.725 5.42342L115.677 1.50476H117.906Z" fill="#FE9F10"/>
<path d="M153.485 1.50476H157.146C158.014 1.50476 158.631 2.35131 158.364 3.1777L153.794 17.3299H148.375L153.485 1.50476Z" fill="#FE9F10"/>
<path d="M137.904 5.73921C138.174 5.58089 138.51 5.50058 138.904 5.50058L148.37 5.5235L149.683 1.5047H138.857C137.816 1.5047 136.866 1.64921 136.033 1.93414C135.2 2.21963 134.471 2.59907 133.866 3.062C133.262 3.52385 132.769 4.05446 132.399 4.63905C132.029 5.22303 131.783 5.82819 131.665 6.43807C131.548 7.04094 131.563 7.64153 131.709 8.22329C131.852 8.79716 132.14 9.31372 132.564 9.75887C132.992 10.2096 133.584 10.5844 134.323 10.8725C135.067 11.1626 135.993 11.3096 137.076 11.3096H140.309C140.811 11.3096 141.163 11.412 141.384 11.6227C141.625 11.8522 141.71 12.1341 141.624 12.4169C141.548 12.666 141.351 12.886 141.041 13.0705C140.748 13.2447 140.36 13.3331 139.887 13.3331L128.016 13.3111L127.593 2.73328C127.566 2.04696 127.001 1.5047 126.314 1.5047H121.94L109.891 17.3294H115.193L122.357 7.93347L122.729 17.3294H140.098C141.14 17.3294 142.09 17.1849 142.922 16.8999C143.753 16.6154 144.486 16.2322 145.1 15.7608C145.71 15.292 146.207 14.7502 146.577 14.1505C146.947 13.5514 147.195 12.9337 147.313 12.315C147.429 11.7027 147.415 11.0976 147.27 10.5169C147.125 9.94161 146.84 9.4154 146.421 8.95309C146 8.48833 145.414 8.10742 144.679 7.82105C143.934 7.53078 143.008 7.38357 141.925 7.38357H138.458C138.028 7.38357 137.727 7.28527 137.537 7.0837C137.332 6.86745 137.268 6.60316 137.356 6.34074C137.432 6.10971 137.617 5.90735 137.904 5.73921Z" fill="#FE9F10"/>
<path d="M174.138 1.57451L171.157 10.8886L168.111 1.57451H162.56L157.489 17.2601H161.738L164.756 7.90662L167.821 17.2601H173.368L177.921 3.2498C178.19 2.42293 177.574 1.57449 176.704 1.57449L174.138 1.57451Z" fill="#FE9F10"/>
<path d="M114.435 0.832144C114.41 0.704096 114.253 0.612087 114.121 0.711555L113.138 1.50473L108.296 5.41221L104.826 8.21197C104.102 8.76148 104.03 9.82445 104.673 10.4672C105.316 11.1099 106.379 11.0378 106.928 10.3143L109.7 6.85064L110.847 5.41969L113.98 1.50475L114.396 0.985075C114.435 0.935352 114.445 0.880635 114.435 0.832144Z" fill="white"/>
</svg>
