<svg xmlns="http://www.w3.org/2000/svg" version="1.1" xmlns:xlink="http://www.w3.org/1999/xlink" xmlns:svgjs="http://svgjs.dev/svgjs" width="68" height="68"><svg width="68" height="68" viewBox="0 0 68 68" fill="none" xmlns="http://www.w3.org/2000/svg">
<path d="M68 34C68 52.7777 52.7777 68 34 68C15.2223 68 0 52.7777 0 34C0 15.2223 15.2223 0 34 0C52.7777 0 68 15.2223 68 34Z" fill="#26273A"></path>
<path d="M68 34C68 52.7777 52.7777 68 34 68C15.2223 68 0 52.7777 0 34C0 15.2223 15.2223 0 34 0C52.7777 0 68 15.2223 68 34Z" fill="white" fill-opacity="0.01"></path>
<path d="M68 34C68 52.7777 52.7777 68 34 68C15.2223 68 0 52.7777 0 34C0 15.2223 15.2223 0 34 0C52.7777 0 68 15.2223 68 34Z" fill="url(#paint0_radial_13701_4996)" fill-opacity="0.1"></path>
<path d="M49.9687 19.496L43.6616 27.5371L43.1787 27.5345L38.5259 27.5218L34.2312 27.5116C32.5368 27.5116 30.9525 27.915 29.5209 28.7143C28.1118 29.4982 26.908 30.4915 25.9393 31.6662C24.9683 32.8382 24.245 34.1329 23.782 35.5092C23.314 36.9111 23.1788 38.2466 23.384 39.4774C23.5943 40.7517 24.2 41.8267 25.1835 42.6668C26.1646 43.5095 27.5912 43.9359 29.4208 43.9359H44.539L46.3679 41.5345L47.4434 43.9359L41.3016 52H26.7328C23.5267 52 20.8513 51.5301 18.7813 50.6058C16.7317 49.689 15.1448 48.4659 14.0637 46.9695C12.9824 45.4732 12.3366 43.7572 12.144 41.8701C11.9488 39.955 12.1715 37.9555 12.8047 35.9255C13.443 33.8801 14.4766 31.8551 15.8782 29.9119C17.2822 27.9661 19.0342 26.1939 21.0865 24.649C23.1337 23.1041 25.5314 21.8452 28.2145 20.9081C30.8924 19.971 33.8532 19.496 37.0118 19.496H47.0097L48.8932 17.0946L49.9687 19.496Z" fill="#1F2031"></path>
<path d="M48.6334 27.5448L51.9258 27.5575L57.875 19.496L56.7995 17.0946L55.0273 19.496H54.0138L49.6682 25.1522L47.5578 25.1434L48.6334 27.5448Z" fill="#1F2031"></path>
<path d="M51.4018 17.6387C51.3517 17.3756 51.0364 17.1867 50.771 17.391L48.2743 19.496L38.5259 27.5218L31.5407 33.2723C30.084 34.401 29.9388 36.5843 31.2327 37.9045C32.5268 39.2246 34.6666 39.0765 35.7728 37.5904L43.6616 27.5371L51.3242 17.9527C51.4019 17.8506 51.4218 17.7383 51.4018 17.6387Z" fill="#1F2031"></path>
<path d="M48.8932 17.0946L42.5861 25.1357L42.1031 25.1332L33.1557 25.1102C31.4613 25.1102 29.877 25.5136 28.4453 26.3129C27.0363 27.0968 25.8324 28.0902 24.8638 29.2648C23.8928 30.4369 23.1694 31.7315 22.7065 33.1079C22.2384 34.5098 22.1033 35.8453 22.3085 37.0761C22.5188 38.3503 23.1244 39.4253 24.108 40.2654C25.089 41.1081 26.5157 41.5345 28.3452 41.5345H46.3679L40.2261 49.5986H25.6573C22.4512 49.5986 19.7757 49.1288 17.7058 48.2044C15.6562 47.2877 14.0693 46.0645 12.9881 44.5682C11.9069 43.0718 11.2611 41.3558 11.0685 39.4687C10.8732 37.5536 11.096 35.5542 11.7292 33.5241C12.3674 31.4787 13.4011 29.4537 14.8027 27.5105C16.2067 25.5647 17.9586 23.7926 20.011 22.2477C22.0582 20.7028 24.4559 19.4439 27.1389 18.5067C29.8169 17.5696 32.7777 17.0946 35.9362 17.0946H48.8932Z" fill="#FE9F10"></path>
<path d="M47.5578 25.1434L50.8503 25.1561L56.7995 17.0946H53.502L47.5578 25.1434Z" fill="#FE9F10"></path>
<path d="M50.3193 16.1601L51.321 17.4623L30.6078 36.978L29.5196 34.5473L50.3193 16.1601Z" fill="#1F2031"></path>
<path d="M50.4021 16.348C50.361 16.0833 50.0524 15.8832 49.7801 16.078L30.5513 30.8078C29.0569 31.8839 28.8371 34.0606 30.0851 35.4261C31.3332 36.7915 33.4768 36.7197 34.6332 35.2739L50.3138 16.6591C50.3949 16.5598 50.4186 16.4482 50.4021 16.348Z" fill="white"></path>
<defs>
<radialGradient id="SvgjsRadialGradient1005" cx="0" cy="0" r="1" gradientUnits="userSpaceOnUse" gradientTransform="translate(33.2649) rotate(90) scale(68 34)">
<stop stop-color="white"></stop>
<stop offset="1" stop-color="white" stop-opacity="0"></stop>
</radialGradient>
</defs>
</svg><style>@media (prefers-color-scheme: light) { :root { filter: none; } }
@media (prefers-color-scheme: dark) { :root { filter: none; } }
</style></svg>